if (_typeface_js && _typeface_js.loadFace) _typeface_js.loadFace({"glyphs":{"S":{"x_min":49.1875,"x_max":668.40625,"ha":716,"o":"m 370 937 q 627 872 515 937 l 627 744 q 368 821 499 821 q 251 787 297 821 q 205 694 205 753 q 228 625 205 652 q 286 579 251 597 q 377 542 322 561 q 523 482 463 513 q 625 397 583 452 q 668 260 668 343 q 623 114 668 176 q 502 20 578 53 q 336 -11 427 -11 q 194 8 263 -11 q 49 70 125 27 l 49 203 q 195 130 118 157 q 344 104 272 104 q 436 122 394 104 q 504 173 479 139 q 529 252 529 207 q 499 334 529 300 q 430 386 469 367 q 327 428 390 406 q 191 483 247 453 q 101 563 135 514 q 66 687 66 613 q 106 824 66 767 q 215 909 146 880 q 370 937 284 937 "},"F":{"x_min":106.09375,"x_max":676.109375,"ha":690,"o":"m 618 516 l 618 406 l 244 406 l 244 0 l 106 0 l 106 925 l 676 925 l 676 810 l 244 810 l 244 516 l 618 516 "},"T":{"x_min":31.828125,"x_max":776.421875,"ha":809,"o":"m 334 0 l 334 810 l 31 810 l 31 925 l 776 925 l 776 810 l 473 810 l 473 0 l 334 0 "},"N":{"x_min":103.203125,"x_max":931.703125,"ha":1037,"o":"m 237 0 l 103 0 l 103 925 l 252 925 l 797 204 l 797 925 l 931 925 l 931 0 l 781 0 l 237 722 l 237 0 "},"K":{"x_min":106.09375,"x_max":834.296875,"ha":852,"o":"m 244 925 l 244 0 l 106 0 l 106 925 l 244 925 m 256 491 l 604 925 l 776 925 l 416 495 l 834 0 l 657 0 l 256 491 "},"Y":{"x_min":26.03125,"x_max":861.296875,"ha":888,"o":"m 374 447 l 26 925 l 199 925 l 446 572 l 693 925 l 861 925 l 513 447 l 513 0 l 374 0 l 374 447 "},"E":{"x_min":106.09375,"x_max":676.109375,"ha":731,"o":"m 618 525 l 618 414 l 244 414 l 244 115 l 676 115 l 676 0 l 106 0 l 106 925 l 676 925 l 676 810 l 244 810 l 244 525 l 618 525 "},"V":{"x_min":54.96875,"x_max":922.0625,"ha":979,"o":"m 206 925 l 488 179 l 769 925 l 922 925 l 563 0 l 413 0 l 54 925 l 206 925 "},"Z":{"x_min":45.328125,"x_max":788.96875,"ha":835,"o":"m 788 0 l 45 0 l 45 115 l 611 810 l 45 810 l 45 925 l 788 925 l 788 810 l 223 115 l 788 115 l 788 0 "},"Q":{"x_min":31.828125,"x_max":1007.90625,"ha":1042,"o":"m 1007 462 q 972 281 1007 366 q 872 133 936 196 l 1007 0 l 861 0 l 792 67 q 664 8 733 28 q 519 -11 595 -11 q 274 51 386 -11 q 97 222 163 113 q 31 462 31 331 q 97 703 31 594 q 274 874 163 812 q 519 937 386 937 q 764 874 652 937 q 942 703 876 812 q 1007 462 1007 594 m 519 117 q 693 164 612 117 l 508 347 l 653 347 l 772 231 q 835 337 813 277 q 858 462 858 396 q 813 637 858 558 q 690 762 767 716 q 519 808 612 808 q 349 762 427 808 q 226 637 271 716 q 181 462 181 558 q 226 288 181 367 q 349 163 271 209 q 519 117 427 117 "},"M":{"x_min":106.09375,"x_max":1052.265625,"ha":1161,"o":"m 616 294 l 539 294 l 240 724 l 240 0 l 106 0 l 106 925 l 262 925 l 579 473 l 893 925 l 1052 925 l 1052 0 l 913 0 l 913 726 l 616 294 "},"C":{"x_min":31.828125,"x_max":852.625,"ha":899,"o":"m 509 937 q 852 815 708 937 l 852 659 q 704 769 788 730 q 527 808 621 808 q 353 762 433 808 q 227 638 273 717 q 181 462 181 559 q 227 287 181 366 q 353 163 273 208 q 527 117 433 117 q 704 156 621 117 q 852 266 788 195 l 852 110 q 509 -11 716 -11 q 269 51 379 -11 q 95 222 160 113 q 31 462 31 331 q 95 703 31 594 q 269 874 160 812 q 509 937 379 937 "},"L":{"x_min":121.53125,"x_max":691.546875,"ha":720,"o":"m 121 0 l 121 925 l 260 925 l 260 129 l 691 129 l 691 0 l 121 0 "},"A":{"x_min":54.96875,"x_max":922.0625,"ha":979,"o":"m 413 925 l 563 925 l 922 0 l 783 0 l 680 269 l 295 269 l 193 0 l 54 0 l 413 925 m 488 801 l 336 384 l 640 384 l 488 801 "},"J":{"x_min":0.96875,"x_max":524.6875,"ha":632,"o":"m 524 299 q 487 135 524 205 q 382 26 450 64 q 226 -11 315 -11 q 102 9 162 -11 q 0 67 43 29 l 0 221 q 94 150 42 177 q 195 124 146 124 q 291 145 247 124 q 360 209 334 166 q 385 312 385 251 l 385 925 l 524 925 l 524 299 "},"O":{"x_min":31.828125,"x_max":1007.90625,"ha":1042,"o":"m 519 937 q 764 874 652 937 q 942 703 876 812 q 1007 462 1007 594 q 942 222 1007 331 q 764 51 876 113 q 519 -11 652 -11 q 274 51 386 -11 q 97 222 163 113 q 31 462 31 331 q 97 703 31 594 q 274 874 163 812 q 519 937 386 937 m 519 808 q 349 762 427 808 q 226 637 271 716 q 181 462 181 558 q 226 288 181 367 q 349 163 271 209 q 519 117 427 117 q 690 163 612 117 q 813 288 767 209 q 858 462 858 367 q 813 637 858 558 q 690 762 767 716 q 519 808 612 808 "},"W":{"x_min":45.328125,"x_max":1341.625,"ha":1389,"o":"m 473 0 l 334 0 l 45 925 l 184 925 l 404 197 l 624 925 l 762 925 l 982 197 l 1202 925 l 1341 925 l 1052 0 l 913 0 l 693 728 l 473 0 "}," ":{"x_min":0,"x_max":0,"ha":448},"X":{"x_min":26.03125,"x_max":888.3125,"ha":914,"o":"m 455 381 l 193 0 l 26 0 l 371 481 l 54 925 l 228 925 l 459 584 l 690 925 l 859 925 l 542 485 l 888 0 l 714 0 l 455 381 "},"P":{"x_min":106.09375,"x_max":723.375,"ha":773,"o":"m 431 925 q 577 887 510 925 q 683 784 644 849 q 723 641 723 718 q 683 498 723 564 q 577 394 644 433 q 431 355 510 355 l 244 355 l 244 0 l 106 0 l 106 925 l 431 925 m 415 471 q 499 494 461 471 q 560 556 538 516 q 582 641 582 595 q 560 725 582 686 q 499 787 538 764 q 415 810 461 810 l 244 810 l 244 471 l 415 471 "},"B":{"x_min":106.09375,"x_max":755.203125,"ha":799,"o":"m 419 925 q 562 895 499 925 q 661 810 625 864 q 697 688 697 756 q 664 574 697 625 q 575 494 631 523 q 705 405 655 468 q 755 259 755 341 q 716 126 755 186 q 609 33 678 67 q 454 0 541 0 l 106 0 l 106 925 l 419 925 m 412 536 q 486 555 453 536 q 539 606 519 573 q 558 677 558 638 q 539 747 558 715 q 486 799 519 780 q 412 818 453 818 l 244 818 l 244 536 l 412 536 m 448 107 q 533 129 494 107 q 594 189 571 151 q 616 271 616 226 q 594 352 616 315 q 533 411 571 389 q 448 434 494 434 l 244 434 l 244 107 l 448 107 "},"H":{"x_min":106.09375,"x_max":902.78125,"ha":1010,"o":"m 249 406 l 249 0 l 106 0 l 106 925 l 249 925 l 249 535 l 758 535 l 758 925 l 902 925 l 902 0 l 758 0 l 758 406 l 249 406 "},"D":{"x_min":106.09375,"x_max":954.859375,"ha":989,"o":"m 473 925 q 715 865 604 925 q 890 698 825 804 q 954 462 954 592 q 890 227 954 333 q 715 60 825 121 q 473 0 604 0 l 106 0 l 106 925 l 473 925 m 473 124 q 640 168 564 124 q 760 290 716 213 q 805 462 805 367 q 760 635 805 558 q 640 756 716 712 q 473 800 564 800 l 244 800 l 244 124 l 473 124 "},"R":{"x_min":115.734375,"x_max":790.890625,"ha":830,"o":"m 440 925 q 586 887 519 925 q 693 784 653 849 q 733 641 733 718 q 709 531 733 583 q 643 442 685 479 q 548 389 601 405 l 790 0 l 631 0 l 410 355 l 254 355 l 254 0 l 115 0 l 115 925 l 440 925 m 424 471 q 509 494 470 471 q 570 556 547 516 q 592 641 592 595 q 569 725 592 686 q 508 787 546 764 q 424 810 470 810 l 254 810 l 254 471 l 424 471 "},"I":{"x_min":113.8125,"x_max":252.703125,"ha":368,"o":"m 252 925 l 252 0 l 113 0 l 113 925 l 252 925 "},"G":{"x_min":31.828125,"x_max":877.703125,"ha":957,"o":"m 533 937 q 717 906 624 937 q 877 815 811 874 l 877 669 q 724 771 814 733 q 541 808 635 808 q 356 763 438 808 q 228 639 274 718 q 181 462 181 560 q 228 282 181 363 q 355 155 274 201 q 536 108 436 108 q 657 132 597 108 q 761 196 717 156 l 760 394 l 519 394 l 519 497 l 877 497 l 877 120 q 712 23 805 57 q 523 -11 620 -11 q 275 51 388 -11 q 97 222 163 113 q 31 462 31 331 q 95 700 31 591 q 272 873 158 809 q 533 937 387 937 "},"U":{"x_min":87.765625,"x_max":863.234375,"ha":951,"o":"m 863 373 q 811 175 863 263 q 669 37 759 86 q 475 -11 580 -11 q 279 37 368 -11 q 139 174 190 86 q 87 373 87 262 l 87 925 l 231 925 l 231 373 q 263 240 231 299 q 351 148 295 181 q 475 115 407 115 q 598 148 543 115 q 686 240 653 181 q 718 373 718 299 l 718 925 l 863 925 l 863 373 "}}}
